<svg width="15" height="9" viewBox="0 0 15 9" fill="none" xmlns="http://www.w3.org/2000/svg">
<path d="M7.00125 7.99944C6.7676 7.99989 6.54116 7.91852 6.36125 7.76944L0.361252 2.76944C0.157036 2.5997 0.0286112 2.35579 0.0042315 2.09136C-0.0201482 1.82693 0.0615137 1.56365 0.231252 1.35944C0.400991 1.15522 0.644902 1.0268 0.909329 1.00242C1.17375 0.978036 1.43704 1.0597 1.64125 1.22944L7.00125 5.70944L12.3613 1.38944C12.4635 1.30637 12.5812 1.24434 12.7076 1.20691C12.8339 1.16948 12.9664 1.15738 13.0974 1.17132C13.2285 1.18526 13.3554 1.22496 13.4711 1.28813C13.5867 1.3513 13.6887 1.43671 13.7713 1.53944C13.8628 1.64226 13.9322 1.76288 13.975 1.89376C14.0178 2.02463 14.0331 2.16293 14.0199 2.3C14.0068 2.43706 13.9655 2.56993 13.8986 2.69029C13.8317 2.81064 13.7407 2.91589 13.6313 2.99944L7.63125 7.82944C7.44617 7.95495 7.22435 8.01481 7.00125 7.99944Z" fill="black"/>
</svg>
