<svg width="30" height="30" fill="none" xmlns="http://www.w3.org/2000/svg"><path fill-rule="evenodd" clip-rule="evenodd" d="M15 0C6.716 0 0 6.716 0 15c0 8.284 6.716 15 15 15 8.284 0 15-6.716 15-15A15 15 0 0 0 15 0Zm12 15a18.462 18.462 0 0 0-5.295-.78c-1.067.014-2.13.12-3.18.315-.375-.915-.765-1.8-1.185-2.685A25.383 25.383 0 0 0 24 7.035 11.91 11.91 0 0 1 27 15ZM16.305 9.87a22.723 22.723 0 0 0 6-4.365A12 12 0 0 0 15 3c-.97.004-1.938.125-2.88.36a48.97 48.97 0 0 1 4.185 6.51ZM9.93 4.14a48.229 48.229 0 0 1 4.335 6.66A22.993 22.993 0 0 1 6 12.375a26.002 26.002 0 0 1-2.655-.165A12 12 0 0 1 9.93 4.14ZM3 14.43V15a12 12 0 0 0 3.09 8.01 18.33 18.33 0 0 1 10.23-7.92 39.13 39.13 0 0 0-1.035-2.28A25.023 25.023 0 0 1 6 14.625a24.485 24.485 0 0 1-3-.195Zm4.77 10.125a16.065 16.065 0 0 1 9.345-7.365 44.747 44.747 0 0 1 2.235 9 11.895 11.895 0 0 1-11.58-1.62v-.015Zm11.565-7.875a49.048 49.048 0 0 1 2.13 8.415 12 12 0 0 0 5.31-7.77 16.096 16.096 0 0 0-5.07-.825c-.793.007-1.585.067-2.37.18Z" fill="#07484A"/></svg>