<svg xmlns="http://www.w3.org/2000/svg" width="32" height="26" fill="none"><path fill="#fff" fill-rule="evenodd" d="M30.639 4.389H1.36A.861.861 0 0 1 .5 3.528V1.805c0-.475.386-.86.861-.86H30.64c.476 0 .861.385.861.86v1.723a.861.861 0 0 1-.861.86Zm.861 9.472V12.14a.861.861 0 0 0-.861-.861H1.36a.861.861 0 0 0-.861.86v1.723c0 .476.386.861.861.861H30.64a.861.861 0 0 0 .861-.86Zm0 8.611v1.722a.861.861 0 0 1-.861.861H1.36a.861.861 0 0 1-.861-.86v-1.723c0-.475.386-.861.861-.861H30.64c.476 0 .861.386.861.861Z" clip-rule="evenodd"/></svg>