<svg width="60" height="68" fill="none" xmlns="http://www.w3.org/2000/svg"><path d="M30 .09C13.566.09.196 13.46.196 29.893v16.16a5.968 5.968 0 0 0 5.96 5.961h2.33a5.97 5.97 0 0 0 5.618 3.974 5.968 5.968 0 0 0 5.961-5.961v-16.16a5.968 5.968 0 0 0-5.96-5.961 5.97 5.97 0 0 0-5.62 3.974H6.157c-.697 0-1.365.12-1.987.341v-2.328C4.17 15.65 15.757 4.064 30 4.064c14.243 0 25.83 11.587 25.83 25.83v2.328a5.932 5.932 0 0 0-1.987-.341h-2.328a5.97 5.97 0 0 0-5.62-3.974 5.968 5.968 0 0 0-5.96 5.96v16.161a5.968 5.968 0 0 0 5.96 5.96 5.94 5.94 0 0 0 1.73-.256 5.971 5.971 0 0 1-5.703 4.23h-6.303A5.97 5.97 0 0 0 30 55.99a5.968 5.968 0 0 0-5.96 5.96A5.968 5.968 0 0 0 30 67.912a5.97 5.97 0 0 0 5.62-3.974h6.302c5.478 0 9.934-4.457 9.934-9.935v-1.987h1.987a5.968 5.968 0 0 0 5.961-5.96V29.893C59.804 13.46 46.434.089 30 .089ZM12.117 33.866a1.99 1.99 0 0 1 1.987-1.986 1.99 1.99 0 0 1 1.987 1.986v16.161a1.99 1.99 0 0 1-1.987 1.987 1.99 1.99 0 0 1-1.986-1.987v-16.16Zm-5.96 1.987h1.987v12.187H6.157a1.99 1.99 0 0 1-1.987-1.987v-8.213a1.99 1.99 0 0 1 1.987-1.987ZM30 63.937a1.99 1.99 0 0 1-1.987-1.987A1.99 1.99 0 0 1 30 59.963a1.99 1.99 0 0 1 1.987 1.987A1.99 1.99 0 0 1 30 63.937Zm17.883-13.909a1.99 1.99 0 0 1-1.987 1.987 1.99 1.99 0 0 1-1.987-1.987v-16.16a1.99 1.99 0 0 1 1.987-1.988 1.99 1.99 0 0 1 1.987 1.988v16.16Zm7.947-3.974a1.99 1.99 0 0 1-1.987 1.987h-1.987V35.854h1.987a1.99 1.99 0 0 1 1.987 1.987v8.213Z" fill="#70908B"/></svg>