<svg width="27" height="28" fill="none" xmlns="http://www.w3.org/2000/svg"><path d="M27 3.111V24.89C27 26.607 25.657 28 24 28h-5.625a.764.764 0 0 1-.75-.778V17.89h3.51c.356 0 .664-.26.735-.622l.54-2.8a.4.4 0 0 0-.075-.321.37.37 0 0 0-.285-.146h-4.425V8.944c0-.214.168-.388.375-.388h3.75c.414 0 .75-.349.75-.778V5.444a.764.764 0 0 0-.75-.777H18c-2.485 0-4.5 2.089-4.5 4.666V14h-1.845a.764.764 0 0 0-.75.778v2.333c0 .43.336.778.75.778H13.5v9.333c0 .43-.336.778-.75.778H3c-1.657 0-3-1.393-3-3.111V3.11C0 1.393 1.343 0 3 0h21c1.657 0 3 1.393 3 3.111Z" fill="#07484A"/></svg>