<svg xmlns="http://www.w3.org/2000/svg" width="27" height="28" fill="none"><path fill="#fff" fill-rule="evenodd" d="m20.809 19.185 5.998 6.006a.751.751 0 0 1-.03 1.036l-1.05 1.051a.75.75 0 0 1-1.064 0l-5.999-6.006a3.904 3.904 0 0 1-.45-.54L17.09 19.23a10.49 10.49 0 0 1-6.553 2.297 10.5 10.5 0 0 1-10.27-8.162A10.515 10.515 0 0 1 5.96 1.54a10.49 10.49 0 0 1 12.774 2.956 10.52 10.52 0 0 1-.069 13.127l1.5 1.036c.234.15.45.327.645.526ZM3.037 11.016c0 4.147 3.357 7.508 7.498 7.508a7.494 7.494 0 0 0 5.303-2.199 7.512 7.512 0 0 0 2.196-5.309c0-4.146-3.357-7.507-7.499-7.507-4.141 0-7.498 3.361-7.498 7.507Z" clip-rule="evenodd"/></svg>