<svg width="27" height="28" fill="none" xmlns="http://www.w3.org/2000/svg"><path fill-rule="evenodd" clip-rule="evenodd" d="M19.5.5h-12A7.5 7.5 0 0 0 0 8v12a7.5 7.5 0 0 0 7.5 7.5h12A7.5 7.5 0 0 0 27 20V8A7.5 7.5 0 0 0 19.5.5ZM24.375 20a4.89 4.89 0 0 1-4.875 4.875h-12A4.89 4.89 0 0 1 2.625 20V8A4.89 4.89 0 0 1 7.5 3.125h12A4.89 4.89 0 0 1 24.375 8v12Zm-3.75-11.625a1.5 1.5 0 1 0 0-3 1.5 1.5 0 0 0 0 3ZM13.5 7.25A6.75 6.75 0 1 0 20.25 14a6.735 6.735 0 0 0-6.75-6.75ZM9.375 14a4.125 4.125 0 1 0 8.25 0 4.125 4.125 0 0 0-8.25 0Z" fill="#07484A"/></svg>