<svg width="28" height="28" fill="none" xmlns="http://www.w3.org/2000/svg"><path fill-rule="evenodd" clip-rule="evenodd" d="M3.111.5H24.89C26.607.5 28 1.843 28 3.5v21c0 1.657-1.393 3-3.111 3H3.11C1.393 27.5 0 26.157 0 24.5v-21c0-1.657 1.393-3 3.111-3ZM7.778 23c.43 0 .778-.336.778-.75v-10.5a.764.764 0 0 0-.778-.75H5.444a.764.764 0 0 0-.777.75v10.5c0 .414.348.75.777.75h2.334ZM6.61 9.5c-1.289 0-2.333-1.007-2.333-2.25S5.322 5 6.61 5C7.9 5 8.944 6.007 8.944 7.25S7.9 9.5 6.611 9.5ZM22.556 23c.43 0 .777-.336.777-.75v-6.9c.05-2.384-1.777-4.418-4.23-4.71-1.716-.151-3.379.622-4.325 2.01v-.9A.764.764 0 0 0 14 11h-2.333a.764.764 0 0 0-.778.75v10.5c0 .414.348.75.778.75H14c.43 0 .778-.336.778-.75v-5.625c0-1.243 1.044-2.25 2.333-2.25 1.289 0 2.334 1.007 2.334 2.25v5.625c0 .414.348.75.777.75h2.334Z" fill="#07484A"/></svg>