<svg width="69" height="68" fill="none" xmlns="http://www.w3.org/2000/svg"><g clip-path="url(#a)" fill="#70908B"><path d="M23.417 52.05a1.35 1.35 0 0 0-.363-.68 1.274 1.274 0 0 0-.431-.287 1.305 1.305 0 0 0-1.016 0 1.347 1.347 0 0 0-.595.488 1.286 1.286 0 0 0-.198.478 1.306 1.306 0 0 0 .198.996 1.273 1.273 0 0 0 .366.367 1.341 1.341 0 0 0 .737.225 1.305 1.305 0 0 0 .508-.103 1.311 1.311 0 0 0 .718-.718 1.345 1.345 0 0 0 .102-.508c0-.086-.009-.174-.026-.259Z"/><path d="M61.593 52.459a1.542 1.542 0 0 0-.016-.04c-1.223-2.86-4.09-3.917-7.482-2.759l-9.253 2.56c-.535-1.621-1.87-3-3.756-3.7l-.035-.012-10.171-3.452c-.847-1.094-3.499-3.895-8.463-3.895-3.47 0-6.54 2.38-8.296 4.975H1.828c-.733 0-1.328.595-1.328 1.328V64.21c0 .733.595 1.328 1.328 1.328h7.897c.733 0 1.328-.595 1.328-1.328v-1.147h3.703c.734 0 1.328-.594 1.328-1.328v-.382c2.159.188 2.869.598 4.852 1.74 1.524.88 3.829 2.209 7.979 4.075.019.008.038.017.058.024.796.314 2.353.806 4.273.806 1.336 0 2.848-.239 4.4-.942l20.452-7.323c.036-.013.072-.028.107-.044 1.955-.9 4.868-3.434 3.388-7.23ZM8.397 62.88h-5.24V48.792h5.24v14.089Zm5.031-2.475h-2.375V48.792h2.375v11.614Zm43.716-3.154-20.443 7.32a1.895 1.895 0 0 0-.113.046c-2.847 1.308-5.554.525-6.614.112-4.009-1.803-6.148-3.037-7.712-3.938-2.173-1.254-3.22-1.858-6.178-2.102V47.993c1.26-2.063 3.7-4.175 6.333-4.175 4.513 0 6.426 2.935 6.501 3.054.162.264.412.462.705.562l10.555 3.582c1.686.633 2.577 2.077 2.167 3.517a2.57 2.57 0 0 1-1.23 1.552 2.572 2.572 0 0 1-1.95.234l-11.898-3.771a1.328 1.328 0 1 0-.803 2.532l11.92 3.777a5.264 5.264 0 0 0 1.48.214c.882 0 1.753-.224 2.545-.665a5.209 5.209 0 0 0 2.572-3.47l9.972-2.762c1.44-.492 3.331-.67 4.173 1.27.871 2.275-1.393 3.527-1.982 3.808ZM48.188 17.47a1.289 1.289 0 0 0-.077-.25 1.254 1.254 0 0 0-.123-.227 1.273 1.273 0 0 0-.366-.367 1.348 1.348 0 0 0-.477-.198 1.316 1.316 0 0 0-.997.198 1.268 1.268 0 0 0-.367.366 1.347 1.347 0 0 0-.224.738 1.305 1.305 0 0 0 .102.507 1.312 1.312 0 0 0 .718.718 1.337 1.337 0 0 0 .768.076 1.348 1.348 0 0 0 .843-.564c.05-.072.09-.15.123-.23a1.25 1.25 0 0 0 .102-.507c0-.087-.008-.174-.025-.26Z"/><path d="M67.172 4.501h-7.897c-.733 0-1.328.595-1.328 1.328v1.147h-3.703c-.734 0-1.328.595-1.328 1.328v.382c-2.159-.188-2.869-.597-4.851-1.74-1.525-.88-3.83-2.209-7.98-4.075a1.173 1.173 0 0 0-.058-.024c-1.35-.532-4.891-1.577-8.672.136L26.01 4.897 21.505.392a1.328 1.328 0 0 0-1.878 0l-14.79 14.79c-.478.478-.57 1.308 0 1.878L30.11 42.333c.404.404 1.351.526 1.878 0L45.491 28.83c.35.03.715.047 1.093.047 3.47 0 6.539-2.38 8.294-4.975h12.294c.734 0 1.328-.594 1.328-1.328V5.83c0-.733-.594-1.328-1.328-1.328ZM20.566 3.21l3.027 3.027c-.9.557-1.94.855-3.027.855a5.732 5.732 0 0 1-3.027-.855l3.027-3.027Zm-9.884 15.939L7.655 16.12l3.027-3.027c.556.9.854 1.94.854 3.027a5.733 5.733 0 0 1-.854 3.027Zm20.367 20.367-3.026-3.026a5.782 5.782 0 0 1 6.052 0l-3.026 3.026Zm4.94-4.94a8.44 8.44 0 0 0-9.88 0L12.595 21.061a8.361 8.361 0 0 0 1.597-4.94c0-1.801-.56-3.514-1.597-4.94l3.03-3.031a8.36 8.36 0 0 0 4.941 1.597c1.801 0 3.514-.56 4.94-1.597l2.873 2.873a5.242 5.242 0 0 0-1.788.61 5.206 5.206 0 0 0-2.164 2.285 7.569 7.569 0 0 0-3.973 2.09c-2.952 2.953-2.951 7.756 0 10.708a7.547 7.547 0 0 0 5.354 2.213 7.547 7.547 0 0 0 5.353-2.213 7.54 7.54 0 0 0 1.97-3.427l4.484 1.522a8.48 8.48 0 0 0 1.407 6.731l-3.033 3.033Zm-8.075-13.057.035.012 2.656.902a4.893 4.893 0 0 1-1.322 2.405 4.92 4.92 0 0 1-6.95 0 4.92 4.92 0 0 1 1.602-8.019c.245 2.04 1.714 3.86 3.98 4.7Zm13.022 8.11a5.808 5.808 0 0 1-.849-2.762c.636.46 1.414.91 2.342 1.269l-1.493 1.493Zm11.98-7.583c-1.26 2.063-3.7 4.175-6.332 4.175a9.67 9.67 0 0 1-1.386-.097h-.005c-2.868-.418-4.411-2.048-4.92-2.693-.027-.04-.142-.191-.16-.216a1.323 1.323 0 0 0-.731-.609l-10.56-3.584c-1.685-.632-2.576-2.075-2.168-3.514l.001-.003.001-.003a2.571 2.571 0 0 1 1.228-1.549 2.57 2.57 0 0 1 1.95-.233l11.9 3.77a1.328 1.328 0 1 0 .802-2.531l-9.464-3-.082-.082-.003-.002-4.9-4.9L32.3 5.466l.046-.017.014-.006.053-.023c2.847-1.308 5.553-.525 6.614-.113 4.009 1.804 6.148 3.038 7.711 3.94 2.174 1.252 3.221 1.856 6.179 2.1v10.698Zm5.031-.8h-2.375V9.633h2.375v11.614Zm7.897 0h-5.24V7.158h5.24v14.089Z"/></g><defs><clipPath id="a"><path fill="#fff" transform="translate(.5)" d="M0 0h68v68H0z"/></clipPath></defs></svg>