<svg width="69" height="68" fill="none" xmlns="http://www.w3.org/2000/svg"><path d="M67.659 14.795 41.296.319a1.323 1.323 0 0 0-1.272 0l-9.937 5.456c-.21.055-.405.16-.567.312l-15.858 8.708a1.321 1.321 0 0 0-.686 1.158v17.508a17.5 17.5 0 0 0-7.165 4.351 17.595 17.595 0 0 0-3.37 20.162 1.321 1.321 0 1 0 2.375-1.16A14.95 14.95 0 0 1 7.68 39.681a14.85 14.85 0 0 1 10.57-4.379 14.85 14.85 0 0 1 10.569 4.379 14.849 14.849 0 0 1 4.378 10.568c0 3.993-1.556 7.746-4.379 10.57a14.95 14.95 0 0 1-17.132 2.864 1.321 1.321 0 1 0-1.16 2.376 17.54 17.54 0 0 0 7.712 1.784 17.6 17.6 0 0 0 12.45-5.155 17.586 17.586 0 0 0 3.639-5.278l5.697 3.128a1.32 1.32 0 0 0 1.272 0L67.66 46.064c.422-.233.685-.677.685-1.16v-9.187a1.322 1.322 0 1 0-2.644 0v8.405L41.986 57.144V31.209l7.826-4.298v6.813a1.321 1.321 0 0 0 1.96 1.159l5.649-3.11c.422-.232.684-.676.684-1.158v-8.257l7.595-4.17v6.953a1.322 1.322 0 1 0 2.644 0v-9.188c0-.482-.262-.926-.685-1.158Zm-27-11.81 23.616 12.968-7.449 4.091L33.21 7.076l7.45-4.09Zm0 25.936L17.045 15.953l7.723-4.24L48.383 24.68l-7.723 4.24Zm10.47-5.749L27.514 10.205l2.95-1.62L54.08 21.552l-2.95 1.62Zm-20.44 14.64a17.476 17.476 0 0 0-12.44-5.152c-.888 0-1.766.065-2.629.194V18.188l23.723 13.026v25.935l-4.118-2.261c.405-1.493.615-3.05.615-4.638 0-4.698-1.83-9.116-5.152-12.438Zm24.773-7.978-3.006 1.654V25.46l3.006-1.65v6.024Z" fill="#70908B"/><path d="M67.022 29.1c-.347 0-.689.142-.934.388a1.332 1.332 0 0 0-.388.935c0 .347.142.688.388.934.245.246.587.387.934.387.348 0 .69-.14.935-.387.246-.246.387-.587.387-.934 0-.348-.141-.69-.387-.935a1.333 1.333 0 0 0-.935-.387ZM13.804 51.572a1.322 1.322 0 0 0 .935-2.257l-.916-.916h7.814a3.441 3.441 0 0 1 3.437 3.438 3.441 3.441 0 0 1-3.437 3.437h-4.63a1.322 1.322 0 1 0 0 2.644h4.63a6.088 6.088 0 0 0 6.081-6.081 6.088 6.088 0 0 0-6.081-6.081h-7.814l.916-.916a1.322 1.322 0 0 0-1.87-1.87l-3.172 3.173a1.323 1.323 0 0 0 0 1.87l3.173 3.172c.258.258.596.387.934.387ZM6.747 63.078c-.376 0-.75-.16-1.01-.47l-.003-.003a1.322 1.322 0 1 1 1.864.162c-.249.209-.55.311-.851.311Z" fill="#70908B"/></svg>