<svg xmlns="http://www.w3.org/2000/svg" width="108" height="18" fill="none"><path fill="#FFC107" d="m16.355 6.5-5.067-.77L9.023.92a.628.628 0 0 0-1.145 0L5.613 5.73.546 6.5a.628.628 0 0 0-.365.195.687.687 0 0 0-.18.476.685.685 0 0 0 .192.47l3.666 3.743-.866 5.285a.697.697 0 0 0 .037.365c.045.116.12.216.216.29a.62.62 0 0 0 .673.05l4.532-2.496 4.531 2.495a.61.61 0 0 0 .405.067.665.665 0 0 0 .521-.77l-.866-5.286 3.666-3.742a.679.679 0 0 0 .186-.383.662.662 0 0 0-.54-.758ZM39.402 6.5l-5.067-.77L32.07.92a.628.628 0 0 0-1.145 0L28.66 5.73l-5.067.77a.628.628 0 0 0-.365.195.687.687 0 0 0-.181.476.685.685 0 0 0 .193.47l3.666 3.743-.866 5.285a.697.697 0 0 0 .037.365c.045.116.12.216.216.29a.62.62 0 0 0 .673.05l4.531-2.496 4.532 2.495a.61.61 0 0 0 .405.067.665.665 0 0 0 .521-.77l-.866-5.286 3.666-3.742a.68.68 0 0 0 .185-.383.662.662 0 0 0-.538-.758ZM60.913 6.5l-5.067-.77L53.58.92a.628.628 0 0 0-1.145 0L50.17 5.73l-5.067.77a.628.628 0 0 0-.365.195.687.687 0 0 0-.181.476.685.685 0 0 0 .193.47l3.666 3.743-.867 5.285a.696.696 0 0 0 .038.365c.045.116.12.216.216.29a.62.62 0 0 0 .672.05l4.532-2.496 4.532 2.495a.61.61 0 0 0 .405.067.665.665 0 0 0 .521-.77l-.866-5.286 3.666-3.742a.68.68 0 0 0 .185-.383.662.662 0 0 0-.538-.758ZM83.96 6.5l-5.067-.77L76.628.92a.628.628 0 0 0-1.145 0L73.217 5.73l-5.067.77a.627.627 0 0 0-.365.195.687.687 0 0 0-.181.476.685.685 0 0 0 .193.47l3.665 3.743-.866 5.285a.697.697 0 0 0 .038.365c.045.116.12.216.216.29a.62.62 0 0 0 .672.05l4.532-2.496 4.532 2.495a.61.61 0 0 0 .405.067.665.665 0 0 0 .52-.77l-.865-5.286 3.665-3.742a.679.679 0 0 0 .186-.383.662.662 0 0 0-.539-.758ZM107.006 6.5l-5.066-.77L99.675.92a.628.628 0 0 0-1.145 0L96.263 5.73l-5.066.77a.628.628 0 0 0-.365.195.687.687 0 0 0-.182.476.685.685 0 0 0 .194.47l3.665 3.743-.866 5.285a.697.697 0 0 0 .038.365c.044.116.12.216.216.29a.62.62 0 0 0 .672.05l4.532-2.496 4.532 2.495a.609.609 0 0 0 .405.067.666.666 0 0 0 .521-.77l-.866-5.286 3.665-3.742a.678.678 0 0 0 .186-.383.663.663 0 0 0-.539-.758Z"/></svg>