<svg width="30" height="28" fill="none" xmlns="http://www.w3.org/2000/svg"><path d="M29.956 4.413a12.32 12.32 0 0 1-2.77 2.824v.873c.008 5.186-1.949 10.159-5.432 13.804-3.483 3.645-8.2 5.656-13.096 5.584-2.83.01-5.624-.674-8.163-1.999a.398.398 0 0 1-.224-.365v-.174c0-.228.174-.413.39-.413 2.781-.097 5.464-1.118 7.668-2.92-2.518-.053-4.784-1.632-5.827-4.061a.433.433 0 0 1 .044-.401c.08-.117.21-.181.346-.17a5.669 5.669 0 0 0 2.276-.222C2.388 16.162.3 13.718.001 10.728a.422.422 0 0 1 .16-.367.371.371 0 0 1 .38-.046 5.709 5.709 0 0 0 2.366.54C.47 9.162-.581 5.942.346 3.017a.825.825 0 0 1 .605-.553.782.782 0 0 1 .758.267C4.995 6.435 9.51 8.642 14.305 8.887a6.705 6.705 0 0 1-.18-1.586c.045-2.804 1.683-5.302 4.149-6.325 2.465-1.022 5.269-.367 7.099 1.66a12.534 12.534 0 0 0 3.58-1.317.243.243 0 0 1 .27 0 .283.283 0 0 1 0 .286 6.824 6.824 0 0 1-2.637 3.173 12.258 12.258 0 0 0 2.996-.762.229.229 0 0 1 .27 0c.067.033.118.097.139.173a.283.283 0 0 1-.035.224Z" fill="#07484A"/></svg>